<?xml version="1.0" encoding="UTF-8"?>
<svg version="1.1" xmlns="http://www.w3.org/2000/svg" width="512" height="512">
<path d="M0 0 C0.8126532 0.00182281 1.6253064 0.00364563 2.46258545 0.00552368 C14.79496624 0.0520341 26.74808928 0.54667111 38.8125 3.3125 C39.58577637 3.48410645 40.35905273 3.65571289 41.15576172 3.83251953 C77.14180622 12.01548718 112.58111197 29.95344962 141.8125 52.3125 C142.39966797 52.75835449 142.98683594 53.20420898 143.59179688 53.66357422 C151.30820442 59.54558499 158.77015172 65.62805881 165.8125 72.3125 C166.33279785 72.80024902 166.8530957 73.28799805 167.38916016 73.79052734 C197.70633059 102.37628741 217.99995661 140.17413456 224.8125 181.3125 C225.13154297 183.20355469 225.13154297 183.20355469 225.45703125 185.1328125 C232.41894889 233.11494991 223.7537278 282.62185754 205.8125 327.3125 C205.38203369 328.42794189 205.38203369 328.42794189 204.94287109 329.56591797 C201.28498251 338.95272127 197.28422639 344.73355823 188.8125 350.3125 C187.53422776 351.21506959 186.25975407 352.12303309 184.98828125 353.03515625 C180.6201447 356.16198413 176.21752831 359.23797004 171.8125 362.3125 C167.38312709 365.41088375 162.95985825 368.51646024 158.5625 371.66015625 C156.42171162 373.18982176 154.28548117 374.64712701 152.0625 376.05859375 C144.90678199 380.84149554 141.70003971 387.98210017 137.84130859 395.43017578 C136.33530027 398.18559205 134.60251849 400.73406887 132.8125 403.3125 C134.05386719 403.33828125 135.29523438 403.3640625 136.57421875 403.390625 C138.21618028 403.44692082 139.858106 403.50426783 141.5 403.5625 C142.31662109 403.57667969 143.13324219 403.59085937 143.97460938 403.60546875 C149.11793229 403.81370045 152.14662552 404.35017413 155.8125 408.3125 C157.10737016 412.19711047 156.9357604 415.87133956 156.91015625 419.91796875 C156.90803383 421.17677605 156.90803383 421.17677605 156.90586853 422.46101379 C156.90027215 425.14071216 156.88772035 427.8203269 156.875 430.5 C156.86998453 432.31705608 156.86542171 434.13411348 156.86132812 435.95117188 C156.85030391 440.40498013 156.83304178 444.85872589 156.8125 449.3125 C157.42246826 449.29155273 158.03243652 449.27060547 158.66088867 449.24902344 C161.44042294 449.16557139 164.2196932 449.11374989 167 449.0625 C167.95970703 449.02898437 168.91941406 448.99546875 169.90820312 448.9609375 C174.30335556 448.90010494 177.04347916 448.87636773 180.92578125 451.078125 C183.83979047 454.52908416 183.93727733 457.68084529 183.97363281 462.09350586 C183.98324036 463.03806137 183.9928479 463.98261688 184.00274658 464.95579529 C184.0091214 466.47621178 184.0091214 466.47621178 184.015625 468.02734375 C184.02132507 469.07523575 184.02702515 470.12312775 184.03289795 471.20277405 C184.04233718 473.41764316 184.04887765 475.63252624 184.05273438 477.84741211 C184.06245353 481.23380973 184.09349308 484.61960379 184.125 488.00585938 C184.13152904 490.15885057 184.1367799 492.31184609 184.140625 494.46484375 C184.1591452 495.98222389 184.1591452 495.98222389 184.17803955 497.53025818 C184.1576699 503.96272621 183.49081201 507.63418799 178.8125 512.3125 C176.63342351 512.56665033 176.63342351 512.56665033 173.86392498 512.57256222 C172.81104091 512.57962781 171.75815685 512.5866934 170.6733672 512.5939731 C169.5075371 512.59155802 168.34170699 512.58914293 167.14054871 512.58665466 C165.90913487 512.59189134 164.67772104 512.59712802 163.40899163 512.60252339 C159.97982279 512.61497293 156.55085857 512.61836579 153.12168109 512.61792648 C149.4276337 512.61957052 145.73362402 512.63262929 142.03959656 512.64411926 C133.95699299 512.66700106 125.87441562 512.67489334 117.79178405 512.67994571 C112.74734273 512.68319917 107.70290906 512.68971952 102.65847206 512.6969471 C88.69883945 512.7165175 74.73921398 512.73291902 60.77956676 512.73582363 C59.88567622 512.7360112 58.99178567 512.73619877 58.07080754 512.73639202 C56.25857341 512.73675828 54.44633929 512.73712198 52.63410517 512.73748314 C51.73447693 512.73766595 50.83484869 512.73784876 49.90795898 512.73803711 C48.55687433 512.73830793 48.55687433 512.73830793 47.17849503 512.73858423 C32.58051706 512.74212655 17.98268656 512.76915058 3.38475975 512.806535 C-11.59365001 512.84458761 -26.57198655 512.86398089 -41.55044574 512.86428314 C-49.96397468 512.86486842 -58.37732776 512.87340524 -66.79081154 512.90228081 C-73.95470968 512.92675411 -81.11836785 512.93410521 -88.28229646 512.91903328 C-91.93871152 512.91184747 -95.59465235 512.91279261 -99.25101471 512.93544388 C-103.21242134 512.95975012 -107.17314592 512.94544462 -111.13459778 512.92723083 C-112.29373572 512.9404308 -113.45287366 512.95363077 -114.64713699 512.96723074 C-122.41313788 512.88531277 -122.41313788 512.88531277 -126.401124 509.93531132 C-128.41088844 506.98451433 -128.81909113 505.49837203 -128.83447266 501.95898438 C-128.85811386 500.39210876 -128.85811386 500.39210876 -128.88223267 498.7935791 C-128.87211151 497.6757605 -128.86199036 496.55794189 -128.8515625 495.40625 C-128.85634613 494.24879272 -128.86112976 493.09133545 -128.86605835 491.89880371 C-128.869457 489.45449462 -128.86025725 487.01014005 -128.83935547 484.56591797 C-128.81259277 480.82546592 -128.83910805 477.08801501 -128.87109375 473.34765625 C-128.86778965 470.97134755 -128.86138342 468.59504071 -128.8515625 466.21875 C-128.86168365 465.1009314 -128.87180481 463.98311279 -128.88223267 462.8314209 C-128.76639806 455.15421381 -128.76639806 455.15421381 -125.97729492 451.09887695 C-122.92174287 449.14232892 -121.47256155 448.71936955 -117.88671875 448.82421875 C-116.91025391 448.84033203 -115.93378906 448.85644531 -114.92773438 448.87304688 C-113.92033203 448.91494141 -112.91292969 448.95683594 -111.875 449 C-110.84826172 449.02255859 -109.82152344 449.04511719 -108.76367188 449.06835938 C-106.2367821 449.12712425 -103.71289745 449.20922151 -101.1875 449.3125 C-101.21368408 448.12696533 -101.23986816 446.94143066 -101.2668457 445.7199707 C-101.35749021 441.31261134 -101.41480088 436.905334 -101.4621582 432.49731445 C-101.48726999 430.59124893 -101.52136645 428.68527941 -101.56469727 426.77954102 C-101.62549744 424.03638002 -101.65374245 421.29449414 -101.67578125 418.55078125 C-101.70158768 417.70163651 -101.7273941 416.85249176 -101.75398254 415.97761536 C-101.75603335 411.63086941 -101.59609555 409.8525416 -98.89257812 406.27929688 C-95.44344299 403.77151415 -92.5000588 403.53552682 -88.375 403.5 C-87.33569336 403.46229492 -87.33569336 403.46229492 -86.27539062 403.42382812 C-84.58002878 403.36536737 -82.88370713 403.33596953 -81.1875 403.3125 C-81.58582031 402.30832031 -81.98414063 401.30414063 -82.39453125 400.26953125 C-89.30076091 382.58183719 -93.74855388 364.9646389 -87.1875 346.3125 C-83.42921594 338.33658605 -78.13482193 331.28554351 -72.96875 324.1796875 C-69.91774359 319.96711936 -66.98819609 315.67515722 -64.0625 311.375 C-58.4735919 303.17020255 -52.81616233 295.015066 -47.13696289 286.87255859 C-42.88713458 280.77335782 -38.67990833 274.64726119 -34.5 268.5 C-29.87626244 261.70899595 -25.12524659 255.02433852 -20.28808594 248.3840332 C-14.99258467 241.09436015 -9.8593837 233.69442326 -4.74291992 226.27832031 C-4.10717041 225.35889648 -3.4714209 224.43947266 -2.81640625 223.4921875 C-1.9039917 222.17250977 -1.9039917 222.17250977 -0.97314453 220.82617188 C1.17450935 217.80289537 3.43989044 214.88537716 5.76586914 211.99755859 C7.09829925 210.18297585 7.09829925 210.18297585 6.8125 207.0625 C5.95121881 204.69397674 4.96757864 202.54565203 3.8125 200.3125 C3.8125 199.3225 3.8125 198.3325 3.8125 197.3125 C3.1525 197.3125 2.4925 197.3125 1.8125 197.3125 C1.76351562 198.02535156 1.71453125 198.73820313 1.6640625 199.47265625 C0.60558026 213.0321788 0.60558026 213.0321788 -2.75170898 217.30175781 C-6.01889504 219.99881548 -9.37740483 221.16449952 -13.34765625 222.546875 C-14.13393906 222.82976379 -14.92022186 223.11265259 -15.73033142 223.40411377 C-17.38675748 223.99757026 -19.0451432 224.58558194 -20.70532227 225.16845703 C-23.24891328 226.06211819 -25.78585107 226.97291225 -28.32226562 227.88671875 C-29.93453512 228.46194952 -31.54715395 229.0362023 -33.16015625 229.609375 C-33.91958023 229.88118591 -34.67900421 230.15299683 -35.46144104 230.43304443 C-38.49295312 231.49276961 -40.95153104 232.3125 -44.1875 232.3125 C-44.22488281 233.09367188 -44.26226562 233.87484375 -44.30078125 234.6796875 C-44.79820532 243.4382525 -45.62052024 252.1533256 -46.5625 260.875 C-46.67634033 262.00470215 -46.79018066 263.1344043 -46.9074707 264.29833984 C-48.12156727 275.14016545 -48.12156727 275.14016545 -51.1875 279.3125 C-53.9609375 281.19140625 -53.9609375 281.19140625 -57.5625 282.875 C-58.58017456 283.35755249 -58.58017456 283.35755249 -59.6184082 283.84985352 C-62.13078066 285.02856749 -64.65787346 286.17128196 -67.1875 287.3125 C-68.26080566 287.80202148 -69.33411133 288.29154297 -70.43994141 288.79589844 C-77.81529946 292.15643226 -85.21191025 295.46617943 -92.62646484 298.73925781 C-94.90966404 299.74796038 -97.19138073 300.76002928 -99.47119141 301.77636719 C-102.37245103 303.06898484 -105.27878469 304.34926593 -108.1875 305.625 C-109.03465576 306.00390381 -109.88181152 306.38280762 -110.75463867 306.77319336 C-118.6058622 310.17681884 -118.6058622 310.17681884 -122.1875 309.3125 C-125.71090874 306.12187739 -128.29032838 302.89051371 -130.7265625 298.82421875 C-131.38076172 297.74027832 -132.03496094 296.65633789 -132.70898438 295.53955078 C-133.41054304 294.35993047 -134.11170447 293.18007384 -134.8125 292 C-135.54706419 290.77299813 -136.28210009 289.54627854 -137.01757812 288.31982422 C-138.58375858 285.70533155 -140.1450829 283.08800686 -141.70410156 280.46923828 C-143.83797591 276.88987383 -145.99390484 273.32429197 -148.15609741 269.76197815 C-149.91350627 266.86378491 -151.66249459 263.96056752 -153.40985107 261.05630493 C-154.25746454 259.65065463 -155.10806549 258.24680122 -155.96173096 256.84481812 C-157.16074637 254.87325882 -158.34731368 252.89470329 -159.53125 250.9140625 C-159.88774628 250.33389877 -160.24424255 249.75373505 -160.61154175 249.1559906 C-162.74361543 245.55421045 -163.96740711 242.5078201 -164.1875 238.3125 C-163.47485352 236.00708008 -163.47485352 236.00708008 -162.25390625 233.76953125 C-161.7861377 232.90666504 -161.31836914 232.04379883 -160.83642578 231.15478516 C-158.03459742 226.3252196 -155.16423991 221.5426674 -152.23074341 216.79190063 C-150.32823916 213.70881775 -148.44053812 210.61672761 -146.5546875 207.5234375 C-146.17895096 206.90714981 -145.80321442 206.29086212 -145.41609192 205.65589905 C-141.08509828 198.53036458 -136.97106979 191.28529228 -132.8671875 184.02734375 C-130.42634604 179.71275141 -127.91040344 175.44695699 -125.375 171.1875 C-116.50106604 156.21570233 -108.1154239 140.92423037 -99.9375 125.5625 C-99.41820923 124.59086914 -99.41820923 124.59086914 -98.88842773 123.59960938 C-97.3308168 120.6441223 -95.88187676 117.67122915 -94.57910156 114.59667969 C-94.11987305 113.51290039 -93.66064453 112.42912109 -93.1875 111.3125 C-101.87788383 105.86041254 -110.6833499 100.73421611 -119.6875 95.8125 C-126.6515612 92.00590728 -133.5892574 88.15879799 -140.40625 84.09375 C-141.46779297 83.46533203 -142.52933594 82.83691406 -143.62304688 82.18945312 C-146.19666583 80.30579142 -147.17497232 79.28437327 -148.1875 76.3125 C-148.74910064 72.00689512 -148.09576372 69.66226073 -145.62841797 66.1328125 C-134.70805995 52.33711792 -120.89223189 40.82793825 -106.1875 31.3125 C-105.55038086 30.89468262 -104.91326172 30.47686523 -104.25683594 30.04638672 C-73.03430253 9.77553016 -37.07584905 -0.17312751 0 0 Z " fill="#36241A" transform="translate(224.1875,-0.3125)"/>
<path d="M0 0 C3.33429922 0.7224315 5.8868472 1.66399111 9 3 C10.26568317 3.50055266 11.53272207 3.99768495 12.80078125 4.4921875 C38.79789861 14.75252895 62.81363933 28.71495624 84 47 C84.76828125 47.65742187 85.5365625 48.31484375 86.328125 48.9921875 C99.11009295 60.20815275 111.01680617 72.21483299 121 86 C121.39767578 86.5475293 121.79535156 87.09505859 122.20507812 87.65917969 C124.88890114 91.38425528 127.46539387 95.17222748 130 99 C130.96486328 100.45019531 130.96486328 100.45019531 131.94921875 101.9296875 C146.13064434 124.07917575 155.60545581 148.27955586 161.875 173.75 C162.14924805 174.85996338 162.42349609 175.96992676 162.70605469 177.11352539 C166.65856017 194.06142701 168.49548949 210.84775728 168.33618164 228.24169922 C168.31226555 231.02730696 168.31569905 233.81196933 168.32226562 236.59765625 C168.30693028 246.25309649 167.84875917 255.49133127 166 265 C165.80019531 266.29292969 165.60039062 267.58585937 165.39453125 268.91796875 C163.56683973 279.18493389 160.13400079 288.45813656 156 298 C155.73203613 298.62793457 155.46407227 299.25586914 155.18798828 299.90283203 C150.66836519 310.29541168 144.2626778 319.3399361 137 328 C136.61574954 328.52029439 136.23149908 329.04058878 135.83560467 329.57664967 C133.06120017 331.72795688 130.7742982 331.36858432 127.29927063 331.36076355 C126.61475411 331.36332682 125.93023759 331.3658901 125.22497815 331.36853105 C122.92619605 331.37348123 120.62806752 331.35695642 118.3293457 331.34057617 C116.68360408 331.33973016 115.03786132 331.34020453 113.39212036 331.34190369 C108.91920142 331.34276609 104.44652275 331.32510076 99.97365975 331.30418181 C95.30115231 331.2854558 90.62863964 331.28366779 85.95610046 331.28010559 C77.10569689 331.27077313 68.2554042 331.24614311 59.4050495 331.21605712 C49.33021747 331.18255046 39.25538021 331.16603651 29.18050635 331.15097082 C8.45360896 331.11959459 -12.27318854 331.06681077 -33 331 C-34.28474871 328.46786749 -35.56536868 325.93378253 -36.84375 323.3984375 C-37.20436523 322.68872803 -37.56498047 321.97901855 -37.93652344 321.24780273 C-42.63315825 311.91350912 -45.31962668 303.28858037 -45.5625 292.8125 C-45.58957031 292.08820801 -45.61664063 291.36391602 -45.64453125 290.61767578 C-45.56800842 280.03600253 -38.58726133 271.58255302 -32.6875 263.3125 C-31.26024712 261.28657776 -29.83316889 259.26053249 -28.40625 257.234375 C-27.67792969 256.20505859 -26.94960937 255.17574219 -26.19921875 254.11523438 C-22.66963367 249.11551128 -19.17925397 244.08868096 -15.6875 239.0625 C-15.0169458 238.09892578 -14.3463916 237.13535156 -13.65551758 236.14257812 C-9.87718535 230.71154588 -6.11557477 225.26959225 -2.375 219.8125 C3.42101339 211.35889264 9.30664618 202.96857048 15.19287109 194.57763672 C16.9911083 192.01268287 18.78700256 189.44610634 20.58203125 186.87890625 C26.14181287 178.9279603 31.71105955 170.98416477 37.3125 163.0625 C40.95534334 157.90818089 44.58715435 152.74661822 48.1875 147.5625 C49.26064453 146.01755859 49.26064453 146.01755859 50.35546875 144.44140625 C53.17091081 140.26171198 53.74488122 136.97848346 53 132 C51.46676075 127.58819388 49.49288374 123.40809111 47.5 119.1875 C46.39256253 116.78476058 45.28710407 114.38110808 44.18359375 111.9765625 C43.63944824 110.79739258 43.09530273 109.61822266 42.53466797 108.40332031 C41.1536667 105.34077535 39.85126872 102.26485415 38.59765625 99.1484375 C38.24832031 98.28065674 37.89898437 97.41287598 37.5390625 96.51879883 C36.90706872 94.92917648 36.28526622 93.3354483 35.67578125 91.73706055 C33.88350381 87.27520624 32.22826425 84.62675054 28 82 C25 81.25 25 81.25 22 82 C19.28134816 84.01063283 17.32477834 85.62890951 16.52203369 89.01779175 C16.29982612 91.48200826 16.20465715 93.92923981 16.1328125 96.40234375 C14.11026825 125.16897246 14.11026825 125.16897246 7.08996582 131.80566406 C-1.87045213 137.96239421 -13.24122433 140.55997044 -23.8053894 142.51013184 C-28.33520273 143.36758906 -31.18071358 144.05299901 -34 148 C-37.03600573 155.93176867 -36.82013592 165.45696403 -37.5625 173.875 C-37.75046595 175.97809526 -37.9400341 178.08100785 -38.13328552 180.18362427 C-38.30680624 182.07504486 -38.47497135 183.96695454 -38.64282227 185.85888672 C-39.2015944 190.77287324 -39.2015944 190.77287324 -40 193 C-42.63619186 194.48448523 -45.12813892 195.68933894 -47.90234375 196.85546875 C-48.69524307 197.20257401 -49.4881424 197.54967926 -50.30506897 197.90730286 C-52.84336549 199.01477931 -55.39001693 200.1013452 -57.9375 201.1875 C-59.65098768 201.93026479 -61.36388665 202.67438925 -63.07617188 203.41992188 C-66.20855728 204.78223782 -69.34435514 206.13601119 -72.48413086 207.48120117 C-74.33965489 208.28275766 -76.19213668 209.09606834 -78 210 C-76.45540995 202.32385552 -74.08397551 195.15899276 -71.390625 187.81640625 C-69.04037558 181.09153292 -67.69631942 174.91104175 -70 168 C-71.38864434 167.69443774 -72.78681264 167.43199192 -74.1875 167.1875 C-75.35345703 166.96126953 -75.35345703 166.96126953 -76.54296875 166.73046875 C-79.44799073 167.04914366 -80.84549139 167.97553422 -82.79272461 170.13891602 C-85.49520222 174.30493965 -86.73402029 179.16606574 -88.1875 183.875 C-88.52974609 184.93847656 -88.87199219 186.00195312 -89.22460938 187.09765625 C-90.91182894 192.37226498 -92.51784424 197.66423928 -94 203 C-97.9610455 201.6796515 -98.48057134 200.0404442 -100.6171875 196.49609375 C-100.95622101 195.93938492 -101.29525452 195.38267609 -101.64456177 194.80909729 C-102.72960299 193.02339962 -103.80247642 191.23073823 -104.875 189.4375 C-105.94048503 187.67546319 -107.00836216 185.91489302 -108.07647705 184.15444946 C-109.10088201 182.46055551 -110.11643544 180.76131866 -111.13183594 179.06201172 C-112.7103526 176.47474617 -114.36725895 173.97780447 -116.0703125 171.47265625 C-118 168 -118 168 -117.78295898 165.55493164 C-116.9638425 162.88201178 -115.9436626 160.97479036 -114.40234375 158.6484375 C-113.85626465 157.81111084 -113.31018555 156.97378418 -112.74755859 156.11108398 C-112.15023926 155.20817627 -111.55291992 154.30526855 -110.9375 153.375 C-98.76876053 134.61946815 -87.550804 115.25918413 -76.57324219 95.78613281 C-75.46581741 93.82493921 -74.35409319 91.86617025 -73.23925781 89.90917969 C-64.42302735 74.48621916 -64.42302735 74.48621916 -56.5078125 58.59375 C-56.22572433 57.9859671 -55.94363617 57.3781842 -55.65299988 56.75198364 C-54.31292648 53.85490933 -53.0038498 50.94964944 -51.73852539 48.01904297 C-48.17032266 40.16188586 -43.75850145 35.3037145 -37 30 C-36.13536133 29.29866943 -35.27072266 28.59733887 -34.37988281 27.87475586 C-32.7821799 26.58221892 -31.17581039 25.30034648 -29.5625 24.02734375 C-24.99273737 20.41193703 -20.50441533 16.6962518 -16 13 C-14.04200304 11.39542278 -12.08367606 9.79124818 -10.125 8.1875 C-9.26132813 7.47980469 -8.39765625 6.77210937 -7.5078125 6.04296875 C-6.68023437 5.36878906 -5.85265625 4.69460937 -5 4 C-4.14664063 3.236875 -3.29328125 2.47375 -2.4140625 1.6875 C-1.61742187 1.130625 -0.82078125 0.57375 0 0 Z " fill="#FECE6F" transform="translate(198,73)"/>
<path d="M0 0 C1.46167603 0.17631958 1.46167603 0.17631958 2.95288086 0.35620117 C12.7864428 1.66829295 22.08811256 4.43252808 31.4375 7.6875 C30.756875 8.3475 30.07625 9.0075 29.375 9.6875 C28.39383189 10.68553633 27.41493684 11.68580914 26.4375 12.6875 C25.82519531 13.29207031 25.21289062 13.89664063 24.58203125 14.51953125 C21.50329456 17.73792197 19.06832277 20.40375185 18.25 24.875 C18.18044903 28.67682132 18.18044903 28.67682132 19.9375 31.6875 C22.35165807 33.91478603 22.35165807 33.91478603 25.6875 34.4375 C31.01881121 33.37123776 33.653962 30.43342828 37.4375 26.6875 C43.00869389 21.27833188 48.32021449 18.01863945 56.24072266 17.50610352 C59.78042828 17.70695897 61.7686399 18.51014535 64.89453125 20.14453125 C65.91635498 20.67457764 66.93817871 21.20462402 67.9909668 21.75073242 C69.06644775 22.32799072 70.14192871 22.90524902 71.25 23.5 C72.3635083 24.08950439 73.4770166 24.67900879 74.62426758 25.28637695 C83.90771363 30.26670897 92.79257396 35.67305687 101.4375 41.6875 C102.0778418 42.13254883 102.71818359 42.57759766 103.37792969 43.03613281 C107.43426729 45.8712517 111.44251452 48.76671036 115.4375 51.6875 C116.31019531 52.31011719 117.18289063 52.93273437 118.08203125 53.57421875 C118.81808594 54.10660156 119.55414063 54.63898438 120.3125 55.1875 C120.92867188 55.6309375 121.54484375 56.074375 122.1796875 56.53125 C122.59476562 56.9128125 123.00984375 57.294375 123.4375 57.6875 C123.4375 58.3475 123.4375 59.0075 123.4375 59.6875 C122.38433594 59.77386719 121.33117187 59.86023438 120.24609375 59.94921875 C103.65633345 61.14906551 103.65633345 61.14906551 89.5390625 68.62890625 C87.90084321 71.69040116 88.18956125 74.2783422 88.4375 77.6875 C88.7675 78.6775 89.0975 79.6675 89.4375 80.6875 C95.77785273 82.80095091 101.01922118 81.80769606 107.06640625 79.44140625 C117.51889915 76.11796122 135.58492091 74.01262136 145.58789062 78.69384766 C149.08356314 81.39088719 151.2202723 84.87437134 153.3203125 88.70751953 C154.47395379 90.7521067 155.75639622 92.62086708 157.125 94.52734375 C178.4375 124.71603878 178.4375 124.71603878 178.4375 138.6875 C177.72730713 138.67178955 177.01711426 138.6560791 176.28540039 138.63989258 C173.0236834 138.5769886 169.76209463 138.53833463 166.5 138.5 C165.38302734 138.47486328 164.26605469 138.44972656 163.11523438 138.42382812 C153.39956766 138.31369901 153.39956766 138.31369901 144.4375 141.6875 C142.30251691 145.08220491 141.86700724 147.6940507 142.4375 151.6875 C144.3110887 154.7280988 144.3110887 154.7280988 147.4375 156.6875 C150.92650338 157.27455984 154.21049243 157.30100378 157.4375 155.6875 C166.595424 154.99533133 175.12678526 155.47618933 183.10546875 160.30078125 C186.19627201 163.46406566 186.70019812 166.39214034 187.25 170.625 C187.36762695 171.45894287 187.48525391 172.29288574 187.60644531 173.15209961 C188.73898568 182.64909443 188.69538115 192.19957068 188.6875 201.75 C188.68690582 202.55291473 188.68631165 203.35582947 188.68569946 204.18307495 C188.66066918 213.06361686 188.48172141 221.8565438 187.4375 230.6875 C184.58137518 229.3057302 182.31234165 227.84449542 179.875 225.8125 C174.09178055 221.41854556 167.30486302 218.59559291 160 218.1875 C156.45934976 218.43802134 156.45934976 218.43802134 153.9375 220.25 C151.82743161 223.67886114 151.81258477 225.72970351 152.4375 229.6875 C155.19460894 233.77562704 158.09307375 235.00602754 162.625 236.4375 C170.58470014 239.08356248 175.58008821 244.56428246 181.125 250.625 C184.51699662 258.53965877 180.32800458 268.10521674 177.75 275.8125 C177.39131836 276.90618896 177.03263672 277.99987793 176.66308594 279.12670898 C173.81856755 287.72422149 170.93082314 296.32847678 167.4375 304.6875 C167.19555908 305.33807373 166.95361816 305.98864746 166.7043457 306.65893555 C164.06094017 312.96649739 159.79069752 315.80192026 154.125 319.375 C152.46192077 320.46175185 150.7991553 321.54898402 149.13671875 322.63671875 C148.34056152 323.1476709 147.5444043 323.65862305 146.72412109 324.18505859 C144.58406149 325.59120069 142.51858996 327.06402778 140.45703125 328.58203125 C137.4375 330.6875 137.4375 330.6875 135.4375 330.6875 C135.56026922 329.24980776 135.68599414 327.81236826 135.8125 326.375 C135.90144531 325.34632813 135.99039062 324.31765625 136.08203125 323.2578125 C136.32367556 320.83074767 136.61465504 318.40819718 136.94921875 315.9921875 C140.18353338 291.9543709 139.88216441 266.51539405 135.4375 242.6875 C135.23253906 241.45128906 135.02757812 240.21507812 134.81640625 238.94140625 C127.51103459 198.24004984 111.2287416 159.12694099 85.4375 126.6875 C84.72207031 125.78 84.00664062 124.8725 83.26953125 123.9375 C77.62462373 116.90384532 71.61458144 110.25182966 65.4375 103.6875 C64.82132813 103.02878906 64.20515625 102.37007813 63.5703125 101.69140625 C58.59897426 96.54167071 53.00689417 92.1670667 47.4375 87.6875 C45.58313335 86.14607389 43.72896387 84.60441054 41.875 83.0625 C20.82391092 65.8954851 -3.44585778 52.78806578 -28.5625 42.6875 C-29.35092285 42.36700684 -30.1393457 42.04651367 -30.95166016 41.71630859 C-40.44081543 37.44972374 -40.44081543 37.44972374 -50.5625 36.6875 C-55.07761918 39.21691232 -58.91310467 42.558813 -62.8125 45.9375 C-67.50738167 49.95843682 -72.25729842 53.88564114 -77.1015625 57.7265625 C-79.77494295 59.85677994 -82.42018967 62.01888116 -85.0625 64.1875 C-85.97257812 64.92742187 -86.88265625 65.66734375 -87.8203125 66.4296875 C-89.66905022 67.95186756 -91.49703605 69.49956124 -93.3046875 71.0703125 C-94.17351562 71.81023437 -95.04234375 72.55015625 -95.9375 73.3125 C-96.70835937 73.98539062 -97.47921875 74.65828125 -98.2734375 75.3515625 C-100.5625 76.6875 -100.5625 76.6875 -102.87768555 76.45092773 C-105.86475405 75.60155398 -108.14145007 74.39767936 -110.80859375 72.80859375 C-111.80503906 72.22029785 -112.80148438 71.63200195 -113.828125 71.02587891 C-115.39820313 70.08494385 -115.39820313 70.08494385 -117 69.125 C-119.15467715 67.8498028 -121.30962412 66.57506138 -123.46484375 65.30078125 C-125.02887939 64.37193115 -125.02887939 64.37193115 -126.62451172 63.42431641 C-130.41613371 61.18286727 -134.23259221 58.9877064 -138.0625 56.8125 C-139.1453125 56.19632813 -140.228125 55.58015625 -141.34375 54.9453125 C-142.44203125 54.32269531 -142.44203125 54.32269531 -143.5625 53.6875 C-143.5625 49.93953602 -142.23683026 48.95066769 -139.70410156 46.3605957 C-139.14174805 45.80847412 -138.57939453 45.25635254 -138 44.6875 C-137.41573242 44.11153076 -136.83146484 43.53556152 -136.22949219 42.94213867 C-112.8363521 20.41988788 -81.52718128 5.95326636 -49.64404297 1.01220703 C-47.7093388 0.71040589 -45.77828701 0.38544081 -43.84765625 0.05859375 C-29.14770672 -2.22380884 -14.72565452 -1.78822143 0 0 Z " fill="#CB953F" transform="translate(244.5625,18.3125)"/>
<path d="M0 0 C90.75 0 181.5 0 275 0 C275 8.91 275 17.82 275 27 C184.25 27 93.5 27 0 27 C0 18.09 0 9.18 0 0 Z " fill="#CA953F" transform="translate(114,467)"/>
<path d="M0 0 C72.93 0 145.86 0 221 0 C221 8.91 221 17.82 221 27 C148.07 27 75.14 27 0 27 C0 18.09 0 9.18 0 0 Z " fill="#FECE6F" transform="translate(141,422)"/>
</svg>
